# xmcd
#
# Track frame offsets: 
#        151
#        21318
#        43081
#        54300
#        69167
#        89148
#        106353
#        123034
#        141355
#        163982
#        183123
#        199228
#        217981
#        233752
#        249015
#        267034
#
# Disc length: 3780 seconds
#
# Revision: 0
# Processed by: cddbd v1.5.1PL2 Copyright (c) Steve Scherf et al.
# Submitted via: ExactAudioCopy v0.95b4
#
DISCID=db0ec210
DTITLE=เอม  อภัสรา - รวมฮิต 16 เพลงดัง ตลับเพชร
DYEAR=2005
DGENRE=Country
TTITLE0=ลมส่าคนหลายใจ
TTITLE1=ฮักอ้ายหลายตายกะชาง
TTITLE2=สุดท้ายที่ใจคุณ
TTITLE3=ผู้บ่าวเมียเผลอ
TTITLE4=หักอกก่อนอกหัก
TTITLE5=สายตาอ่านกิน
TTITLE6=ปากว่าไม่แต่ใจรัก
TTITLE7=แพ้คนข้างบ้าน
TTITLE8=มักอ้ายหลายอีหลี
TTITLE9=หมั้นไม่มีมีมื้อแต่ง
TTITLE10=ปีใหม่ใจเศร้า
TTITLE11=มักย้อมเขาย่อง
TTITLE12=แตงโมพันธุ์ใหม่
TTITLE13=สาวโลโซ
TTITLE14=มักบ่าวโลโซ
TTITLE15=อภัสราพาเต้ย
EXTD=
EXTT0=
EXTT1=
EXTT2=
EXTT3=
EXTT4=
EXTT5=
EXTT6=
EXTT7=
EXTT8=
EXTT9=
EXTT10=
EXTT11=
EXTT12=
EXTT13=
EXTT14=
EXTT15=
PLAYORDER=
